<?xml version="1.0" encoding="UTF-8"?><svg id="Capa_1" xmlns="http://www.w3.org/2000/svg" width="100" height="100" viewBox="0 0 100 100"><path d="M71.86,92.3l.1-14.36c2.18-3.63-1.95-8.49-2.77-12.08-3.23,1.79-16.21,13.57-16.22,13.57-.42-.92-.22-.35-1.29-.39.28-.54.62-.98.88-1.54-2.11.63-13.97,21.03-9.88,10.54l-.31-.2c-.74,1.06-1.61,2.98-2.56,3.78-.69.58-2.22.55-1.29-.87,4.38-6.62,9.17-13.1,12.27-20.43,4.49-10.62,11.82-19.55,17.15-29.52,1.52-2.85,2.79-5.92,3.37-9.22,1.11-6.33,3.96-10.55,9.96-12.03,3.74-.92,5.49,1.01,8.65,2.05,2.12.34,3.09.41,5.07,1.25-.27,1.11-2.91,2.23-4.6,3.06-3.59,1.77-3.65,6.47-2.7,9.74,5.01,13.21-4.06,22.99-14.97,28.51.05,2.65.51,4.05,1.04,5.28,3.19,7.44,1.25,16.08-1.91,22.86Z" fill="#fff" fill-rule="evenodd"/><path d="M6.38,5.7l.18,15.71c12.91-5.94,39.46-4.87,45.85-2.12-14.46,22.41-30.45,46.4-45.67,69.76-1.4,2.1-1.75,2.68-1.75,3.49s.7,1.16,1.98,1.16c23.52,0,43.07.58,62.52.58,6.13,0,7.22-20.84,4.66-20.84-.46,0-.87.28-.91.85-.56,7.5-13.38,12.61-20.29,12.51l-28.37-.43c16.22-24.73,33.7-51.07,49.57-76.84,1.15-2.01,1.78-2.81-1.05-2.81-5.52,0-29.26.09-46.9-.04-10.25-.08-18.45-.34-19.82-.99Z" fill="#fff" fill-rule="evenodd"/></svg>